Release info:

General
Format                                   : Matroska
Format version                           : Version 4 / Version 2
File size                                : 1.09 GiB
Duration                                 : 1h 43mn
Overall bit rate                         : 1 511 Kbps
Movie name                               : Gangster Squad 2013 TSRip English

Video
ID                                       : 1
Format                                   : MPEG-4 Visual
Format profile                           : Advanced Simple@L5
Format settings, BVOP                    : Yes
Format settings, QPel                    : No
Format settings, GMC                     : No warppoints
Format settings, Matrix                  : Default (H.263)
Codec ID                                 : V_MS/VFW/FOURCC / XVID
Codec ID/Hint                            : XviD
Duration                                 : 1h 43mn
Bit rate                                 : 1 352 Kbps
Width                                    : 720 pixels
Height                                   : 340 pixels
Display aspect ratio                     : 2.118
Frame rate mode                          : Constant
Frame rate                               : 29.970 fps
Color space                              : YUV
Chroma subsampling                       : 4:2:0
Bit depth                                : 8 bits
Scan type                                : Progressive
Compression mode                         : Lossy
Bits/(Pixel*Frame)                       : 0.184
Stream size                              : 1 002 MiB (90%)
Title                                    : Gangster Squad 2013 TSRip English
Writing library                          : XviD 64
Language                                 : English
Default                                  : Yes
Forced                                   : No

Audio
ID                                       : 2
Format                                   : MPEG Audio
Format version                           : Version 1
Format profile                           : Layer 3
Mode                                     : Joint stereo
Mode extension                           : MS Stereo
Codec ID                                 : A_MPEG/L3
Codec ID/Hint                            : MP3
Duration                                 : 1h 43mn
Bit rate mode                            : Constant
Bit rate                                 : 128 Kbps
Channel(s)                               : 2 channels
Sampling rate                            : 44.1 KHz
Compression mode                         : Lossy
Stream size                              : 94.9 MiB (8%)
Title                                    : Gangster Squad 2013 TSRip English
Writing library                          : LAME3.99r
Encoding settings                        : -m j -V 4 -q 2 -lowpass 17 -b 128
Language                                 : English
Default                                  : Yes
Forced                                   : No



Source:
credit to original movie ripper MATiNE (Thanks)

MDB Info:

Los Angeles, 1949: A secret crew of police officers led by two determined sergeants work together in an effort to take down the ruthless mob king Mickey Cohen who runs the city.

Director: Ruben Fleischer
Writers: Will Beall, Paul Lieberman (book)
Stars: Sean Penn, Ryan Gosling and Emma Stone 

Genres: Action | Crime | Drama | Thriller
 
http://www.imdb.com/title/tt1321870/

Screen Shot:
 
http://www.shotpix.com/images/71492113017512654390.png 
http://www.shotpix.com/images/44360055946112736936.png 
http://www.shotpix.com/images/11481931218561639493.png 
http://www.shotpix.com/images/07829128448295530432.png